<svg xmlns="http://www.w3.org/2000/svg" viewBox="0 0 91.99 100.06"><defs><style>.cls-1{fill:#fff;}</style></defs><g id="Layer_2" data-name="Layer 2"><g id="Layer_1-2" data-name="Layer 1"><path id="Fill-1-Copy-2" class="cls-1" d="M82,17.72A19.94,19.94,0,0,1,92,35V65.08A19.92,19.92,0,0,1,82,82.33L56,97.39a19.94,19.94,0,0,1-19.91,0L10,82.33A19.91,19.91,0,0,1,0,65.08V35A19.93,19.93,0,0,1,10,17.72L36,2.67A19.89,19.89,0,0,1,56,2.67ZM39.53,9.5,14.13,24.17a12.92,12.92,0,0,0-6.46,11.2V64.69a12.93,12.93,0,0,0,6.46,11.2l25.4,14.66a12.93,12.93,0,0,0,12.93,0l25.4-14.66a12.93,12.93,0,0,0,6.46-11.2V35.37a12.92,12.92,0,0,0-6.46-11.2L52.46,9.5a12.93,12.93,0,0,0-12.93,0ZM51.3,17.7l20,11.56a10.64,10.64,0,0,1,5.32,9.21V61.6a10.61,10.61,0,0,1-5.32,9.2l-20,11.57a10.61,10.61,0,0,1-10.62,0l-20-11.57a10.6,10.6,0,0,1-5.31-9.2V38.47a10.63,10.63,0,0,1,5.31-9.21l20-11.56a10.61,10.61,0,0,1,10.62,0ZM34.5,61.53h23v-23h-23Z"/></g></g></svg>